<?xml version="1.0" encoding="UTF-8" standalone="no"?>
<svg
   xmlns:dc="http://purl.org/dc/elements/1.1/"
   xmlns:cc="http://creativecommons.org/ns#"
   xmlns:rdf="http://www.w3.org/1999/02/22-rdf-syntax-ns#"
   xmlns:svg="http://www.w3.org/2000/svg"
   xmlns="http://www.w3.org/2000/svg"
   id="svg866"
   version="1.1"
   viewBox="0 0 24 24"
   role="img"
   class="logo-svg">
  <metadata
     id="metadata872">
    <rdf:RDF>
      <cc:Work
         rdf:about="">
        <dc:format>image/svg+xml</dc:format>
        <dc:type
           rdf:resource="http://purl.org/dc/dcmitype/StillImage" />
        <dc:title></dc:title>
      </cc:Work>
    </rdf:RDF>
  </metadata>
  <defs
     id="defs870" />
  <path
     style="stroke-width:1"
     id="path864"
     d="M 12.042178,2.0062317 C 5.557462,1.7602389 0.34566475,8.8435443 2.4893145,14.958751 4.1716173,21.221258 12.476813,24.117639 17.688467,20.255891 23.177499,16.798143 23.488831,8.0099223 18.258252,4.1725488 16.508671,2.7770664 14.279972,2.0006478 12.042178,2.0062317 Z M 9.0588054,8.2866773 c 0.8344975,0 1.6689886,0 2.5034866,0 0.184308,1.154705 0.334017,2.3145637 0.50056,3.4719167 0.146983,-1.157306 0.293971,-2.3146107 0.440961,-3.4719167 0.840577,0 1.681161,0 2.521739,0 0,2.4783287 0,4.9566597 0,7.4349897 -0.563372,0 -1.126743,0 -1.690121,0 0,-1.67315 0,-3.346303 0,-5.01946 -0.225069,1.673157 -0.450142,3.34631 -0.675216,5.01946 -0.399622,0 -0.799245,0 -1.198861,0 -0.23736,-1.634917 -0.474728,-3.269841 -0.712087,-4.904764 0,1.634923 0,3.269847 0,4.904764 -0.563485,0 -1.1269698,0 -1.6904617,0 0,-2.47833 0,-4.956661 1e-7,-7.4349897 z" />
</svg>
